<mxfile host="app.diagrams.net" agent="Mozilla/5.0 (Windows NT 10.0; Win64; x64) AppleWebKit/537.36 (KHTML, like Gecko) Chrome/139.0.0.0 Safari/537.36 Edg/139.0.0.0" version="28.1.2">
  <diagram name="Pagina-1" id="Tslpl3RvF41dphaKJKLc">
    <mxGraphModel dx="1034" dy="1747" grid="1" gridSize="10" guides="1" tooltips="1" connect="1" arrows="1" fold="1" page="1" pageScale="1" pageWidth="827" pageHeight="1169" math="0" shadow="0">
      <root>
        <mxCell id="0" />
        <mxCell id="1" parent="0" />
        <mxCell id="Ii7fmUufG-tqG6NRhK23-1" value="A1 - Acquire Physiological Data" style="html=1;shape=mxgraph.infographic.ribbonSimple;notch1=20;notch2=0;align=center;verticalAlign=middle;fontSize=14;fontStyle=0;fillColor=#fad9d5;flipH=0;spacingRight=0;spacingLeft=14;whiteSpace=wrap;strokeColor=#ae4132;" parent="1" vertex="1">
          <mxGeometry x="310" y="-100" width="170" height="40" as="geometry" />
        </mxCell>
        <mxCell id="Ii7fmUufG-tqG6NRhK23-2" value="l1: Physiological Data" style="rounded=0;whiteSpace=wrap;html=1;fillColor=#fad7ac;strokeColor=#b46504;" parent="1" vertex="1">
          <mxGeometry x="330" y="-10" width="130" height="60" as="geometry" />
        </mxCell>
        <mxCell id="Ii7fmUufG-tqG6NRhK23-4" value="" style="endArrow=classic;html=1;rounded=0;exitX=0;exitY=0;exitDx=85;exitDy=40;exitPerimeter=0;entryX=0.5;entryY=0;entryDx=0;entryDy=0;" parent="1" source="Ii7fmUufG-tqG6NRhK23-1" target="Ii7fmUufG-tqG6NRhK23-2" edge="1">
          <mxGeometry width="50" height="50" relative="1" as="geometry">
            <mxPoint x="400" y="70" as="sourcePoint" />
            <mxPoint x="450" y="20" as="targetPoint" />
          </mxGeometry>
        </mxCell>
        <mxCell id="Ii7fmUufG-tqG6NRhK23-6" value="&amp;lt;&amp;lt;buffer&amp;gt;&amp;gt;&lt;br&gt;l1.1: Physiological Data&lt;br&gt;{1..*}" style="rounded=0;whiteSpace=wrap;html=1;fillColor=#fad7ac;strokeColor=#b46504;" parent="1" vertex="1">
          <mxGeometry x="330" y="90" width="130" height="60" as="geometry" />
        </mxCell>
        <mxCell id="Ii7fmUufG-tqG6NRhK23-7" value="" style="endArrow=classic;html=1;rounded=0;exitX=0.5;exitY=1;exitDx=0;exitDy=0;entryX=0.5;entryY=0;entryDx=0;entryDy=0;" parent="1" source="Ii7fmUufG-tqG6NRhK23-2" target="Ii7fmUufG-tqG6NRhK23-6" edge="1">
          <mxGeometry width="50" height="50" relative="1" as="geometry">
            <mxPoint x="400" y="70" as="sourcePoint" />
            <mxPoint x="450" y="20" as="targetPoint" />
          </mxGeometry>
        </mxCell>
        <mxCell id="Ii7fmUufG-tqG6NRhK23-8" value="" style="html=1;points=[];perimeter=orthogonalPerimeter;fillColor=strokeColor;rotation=90;strokeColor=light-dark(#000000,#000000);" parent="1" vertex="1">
          <mxGeometry x="396.88" y="-11.870000000000005" width="5" height="413.75" as="geometry" />
        </mxCell>
        <mxCell id="Ii7fmUufG-tqG6NRhK23-9" value="" style="endArrow=classic;html=1;rounded=0;exitX=0.5;exitY=1;exitDx=0;exitDy=0;entryX=-0.14;entryY=0.513;entryDx=0;entryDy=0;entryPerimeter=0;" parent="1" source="Ii7fmUufG-tqG6NRhK23-6" target="Ii7fmUufG-tqG6NRhK23-8" edge="1">
          <mxGeometry width="50" height="50" relative="1" as="geometry">
            <mxPoint x="400" y="70" as="sourcePoint" />
            <mxPoint x="450" y="20" as="targetPoint" />
          </mxGeometry>
        </mxCell>
        <mxCell id="Ii7fmUufG-tqG6NRhK23-10" value="&amp;lt;&amp;lt;datastore&amp;gt;&amp;gt;&lt;div&gt;l2.1: Physiological Data&lt;/div&gt;" style="rounded=0;whiteSpace=wrap;html=1;fillColor=#fad7ac;strokeColor=#b46504;" parent="1" vertex="1">
          <mxGeometry x="190" y="360" width="140" height="60" as="geometry" />
        </mxCell>
        <mxCell id="Ii7fmUufG-tqG6NRhK23-11" value="" style="endArrow=classic;html=1;rounded=0;" parent="1" target="Ii7fmUufG-tqG6NRhK23-26" edge="1">
          <mxGeometry width="50" height="50" relative="1" as="geometry">
            <mxPoint x="530" y="196" as="sourcePoint" />
            <mxPoint x="450" y="120" as="targetPoint" />
          </mxGeometry>
        </mxCell>
        <mxCell id="Ii7fmUufG-tqG6NRhK23-12" value="" style="endArrow=classic;html=1;rounded=0;entryX=0.5;entryY=0;entryDx=0;entryDy=0;" parent="1" target="Ii7fmUufG-tqG6NRhK23-25" edge="1">
          <mxGeometry width="50" height="50" relative="1" as="geometry">
            <mxPoint x="260" y="195" as="sourcePoint" />
            <mxPoint x="450" y="120" as="targetPoint" />
          </mxGeometry>
        </mxCell>
        <mxCell id="Ii7fmUufG-tqG6NRhK23-13" value="" style="endArrow=classic;html=1;rounded=0;exitX=0.5;exitY=1;exitDx=0;exitDy=0;entryX=0.5;entryY=0;entryDx=0;entryDy=0;" parent="1" source="Ii7fmUufG-tqG6NRhK23-25" target="Ii7fmUufG-tqG6NRhK23-10" edge="1">
          <mxGeometry width="50" height="50" relative="1" as="geometry">
            <mxPoint x="400" y="270" as="sourcePoint" />
            <mxPoint x="450" y="220" as="targetPoint" />
          </mxGeometry>
        </mxCell>
        <mxCell id="Ii7fmUufG-tqG6NRhK23-14" value="" style="endArrow=classic;html=1;rounded=0;exitX=0.5;exitY=1;exitDx=0;exitDy=0;entryX=0.5;entryY=0;entryDx=0;entryDy=0;" parent="1" source="Ii7fmUufG-tqG6NRhK23-10" target="Ii7fmUufG-tqG6NRhK23-17" edge="1">
          <mxGeometry width="50" height="50" relative="1" as="geometry">
            <mxPoint x="400" y="270" as="sourcePoint" />
            <mxPoint x="250" y="460" as="targetPoint" />
          </mxGeometry>
        </mxCell>
        <mxCell id="Ii7fmUufG-tqG6NRhK23-15" value="" style="endArrow=classic;html=1;rounded=0;entryX=0.5;entryY=0;entryDx=0;entryDy=0;exitX=0;exitY=0;exitDx=95;exitDy=40;exitPerimeter=0;" parent="1" source="Ii7fmUufG-tqG6NRhK23-26" target="Ii7fmUufG-tqG6NRhK23-16" edge="1">
          <mxGeometry width="50" height="50" relative="1" as="geometry">
            <mxPoint x="590" y="310" as="sourcePoint" />
            <mxPoint x="500" y="340" as="targetPoint" />
          </mxGeometry>
        </mxCell>
        <mxCell id="Ii7fmUufG-tqG6NRhK23-16" value="" style="shape=sumEllipse;perimeter=ellipsePerimeter;whiteSpace=wrap;html=1;backgroundOutline=1;fillColor=#fad9d5;strokeColor=#ae4132;" parent="1" vertex="1">
          <mxGeometry x="510" y="310" width="30" height="30" as="geometry" />
        </mxCell>
        <mxCell id="Ii7fmUufG-tqG6NRhK23-17" value="" style="shape=sumEllipse;perimeter=ellipsePerimeter;whiteSpace=wrap;html=1;backgroundOutline=1;fillColor=#fad9d5;strokeColor=#ae4132;" parent="1" vertex="1">
          <mxGeometry x="245" y="450" width="30" height="30" as="geometry" />
        </mxCell>
        <mxCell id="Ii7fmUufG-tqG6NRhK23-18" value="" style="endArrow=none;dashed=1;html=1;dashPattern=1 3;strokeWidth=2;rounded=0;entryX=1;entryY=0.5;entryDx=0;entryDy=0;entryPerimeter=0;exitX=1;exitY=0.5;exitDx=0;exitDy=0;exitPerimeter=0;fillColor=#b0e3e6;strokeColor=#0e8088;" parent="1" source="Ii7fmUufG-tqG6NRhK23-26" target="Ii7fmUufG-tqG6NRhK23-1" edge="1">
          <mxGeometry width="50" height="50" relative="1" as="geometry">
            <mxPoint x="400" y="-30" as="sourcePoint" />
            <mxPoint x="450" y="-80" as="targetPoint" />
            <Array as="points">
              <mxPoint x="650" y="260" />
              <mxPoint x="650" y="80" />
              <mxPoint x="650" y="-80" />
            </Array>
          </mxGeometry>
        </mxCell>
        <mxCell id="Ii7fmUufG-tqG6NRhK23-19" value="" style="endArrow=none;dashed=1;html=1;dashPattern=1 3;strokeWidth=2;rounded=0;exitX=1;exitY=0.5;exitDx=0;exitDy=0;fillColor=#b0e3e6;strokeColor=#0e8088;" parent="1" source="Ii7fmUufG-tqG6NRhK23-10" edge="1">
          <mxGeometry width="50" height="50" relative="1" as="geometry">
            <mxPoint x="650" y="390" as="sourcePoint" />
            <mxPoint x="650" y="260" as="targetPoint" />
            <Array as="points">
              <mxPoint x="650" y="390" />
            </Array>
          </mxGeometry>
        </mxCell>
        <mxCell id="Ii7fmUufG-tqG6NRhK23-20" value="&amp;lt;&amp;lt;delay&amp;gt;&amp;gt;&lt;br&gt;1 second" style="shape=note;whiteSpace=wrap;html=1;backgroundOutline=1;darkOpacity=0.05;size=15;fillColor=#b0e3e6;strokeColor=#0e8088;" parent="1" vertex="1">
          <mxGeometry x="616" y="30" width="90" height="50" as="geometry" />
        </mxCell>
        <mxCell id="Ii7fmUufG-tqG6NRhK23-21" value="&amp;lt;&amp;lt;frequency&amp;gt;&amp;gt;&lt;br&gt;nPatients * 1 / 3 minutes" style="shape=note;whiteSpace=wrap;html=1;backgroundOutline=1;darkOpacity=0.05;size=15;fillColor=#d5e8d4;strokeColor=#82b366;" parent="1" vertex="1">
          <mxGeometry x="335" y="-190" width="120" height="50" as="geometry" />
        </mxCell>
        <mxCell id="Ii7fmUufG-tqG6NRhK23-22" value="" style="endArrow=none;dashed=1;html=1;dashPattern=1 3;strokeWidth=2;rounded=0;entryX=0.5;entryY=1;entryDx=0;entryDy=0;entryPerimeter=0;exitX=0;exitY=0;exitDx=85;exitDy=0;exitPerimeter=0;fillColor=#d5e8d4;strokeColor=#82b366;" parent="1" source="Ii7fmUufG-tqG6NRhK23-1" target="Ii7fmUufG-tqG6NRhK23-21" edge="1">
          <mxGeometry width="50" height="50" relative="1" as="geometry">
            <mxPoint x="400" y="70" as="sourcePoint" />
            <mxPoint x="450" y="20" as="targetPoint" />
            <Array as="points">
              <mxPoint x="395" y="-140" />
            </Array>
          </mxGeometry>
        </mxCell>
        <mxCell id="Ii7fmUufG-tqG6NRhK23-24" value="&amp;lt;&amp;lt;complexity&amp;gt;&amp;gt;&lt;br&gt;low" style="shape=note;whiteSpace=wrap;html=1;backgroundOutline=1;darkOpacity=0.05;size=15;fillColor=#b1ddf0;strokeColor=#10739e;" parent="1" vertex="1">
          <mxGeometry x="160" y="-5" width="120" height="50" as="geometry" />
        </mxCell>
        <mxCell id="Ii7fmUufG-tqG6NRhK23-25" value="A2 - Store Data" style="rounded=1;whiteSpace=wrap;html=1;fillColor=#fad9d5;strokeColor=#ae4132;" parent="1" vertex="1">
          <mxGeometry x="190" y="240" width="140" height="60" as="geometry" />
        </mxCell>
        <mxCell id="Ii7fmUufG-tqG6NRhK23-26" value="A3 - Send to Handle Patient Data" style="html=1;shadow=0;dashed=0;align=center;verticalAlign=middle;shape=mxgraph.arrows2.arrow;dy=0;dx=10;notch=0;fillColor=#fad9d5;strokeColor=#ae4132;" parent="1" vertex="1">
          <mxGeometry x="430" y="240" width="200" height="40" as="geometry" />
        </mxCell>
        <mxCell id="ll78BptPDNngG5YAgyJ9-1" value="" style="strokeWidth=2;html=1;shape=mxgraph.flowchart.start_2;whiteSpace=wrap;fillColor=#f8cecc;strokeColor=#b85450;" vertex="1" parent="1">
          <mxGeometry x="260" y="-95" width="30.62" height="30" as="geometry" />
        </mxCell>
        <mxCell id="ll78BptPDNngG5YAgyJ9-2" value="" style="endArrow=classic;html=1;rounded=0;exitX=1;exitY=0.5;exitDx=0;exitDy=0;exitPerimeter=0;entryX=0;entryY=0;entryDx=20;entryDy=20;entryPerimeter=0;" edge="1" parent="1" source="ll78BptPDNngG5YAgyJ9-1">
          <mxGeometry width="50" height="50" relative="1" as="geometry">
            <mxPoint x="245.62" y="-90" as="sourcePoint" />
            <mxPoint x="330" y="-80" as="targetPoint" />
          </mxGeometry>
        </mxCell>
      </root>
    </mxGraphModel>
  </diagram>
</mxfile>
